<svg width="52" height="52" viewBox="0 0 52 52" fill="none" xmlns="http://www.w3.org/2000/svg">
<g clip-path="url(#clip0_2_12)">
<path d="M22.752 15.3597C22.8451 15.1181 22.8409 14.8499 22.7403 14.6113C22.6397 14.3728 22.4505 14.1826 22.2125 14.0807C21.9745 13.9788 21.7063 13.9732 21.4643 14.065C21.2222 14.1568 21.0252 14.3389 20.9147 14.573L11.9147 35.573C11.8216 35.8146 11.8257 36.0828 11.9264 36.3213C12.027 36.5599 12.2162 36.7501 12.4541 36.852C12.6921 36.9539 12.9604 36.9595 13.2024 36.8677C13.4445 36.7759 13.6415 36.5938 13.752 36.3597L22.752 15.3597ZM6 34.133C6 34.3957 5.94827 34.6557 5.84776 34.8984C5.74725 35.141 5.59993 35.3615 5.41421 35.5472C5.2285 35.7329 5.00802 35.8803 4.76537 35.9808C4.52272 36.0813 4.26264 36.133 4 36.133C3.73736 36.133 3.47728 36.0813 3.23463 35.9808C2.99198 35.8803 2.7715 35.7329 2.58579 35.5472C2.40007 35.3615 2.25275 35.141 2.15224 34.8984C2.05173 34.6557 2 34.3957 2 34.133C2 33.6026 2.21071 33.0939 2.58579 32.7188C2.96086 32.3437 3.46957 32.133 4 32.133C4.53043 32.133 5.03914 32.3437 5.41421 32.7188C5.78929 33.0939 6 33.6026 6 34.133Z" fill="black"/>
<path d="M49.0853 15.8933C49.1785 15.6518 49.1743 15.3835 49.0737 15.145C48.973 14.9065 48.7838 14.7163 48.5459 14.6144C48.3079 14.5125 48.0397 14.5068 47.7976 14.5987C47.5556 14.6905 47.3585 14.8726 47.248 15.1067L38.248 36.1067C38.1549 36.3482 38.1591 36.6165 38.2597 36.855C38.3603 37.0935 38.5495 37.2837 38.7875 37.3856C39.0255 37.4875 39.2937 37.4932 39.5357 37.4013C39.7778 37.3095 39.9748 37.1274 40.0853 36.8933L49.0853 15.8933ZM32.3333 34.6667C32.3333 34.9293 32.2816 35.1894 32.1811 35.432C32.0806 35.6747 31.9333 35.8952 31.7476 36.0809C31.5618 36.2666 31.3414 36.4139 31.0987 36.5144C30.8561 36.6149 30.596 36.6667 30.3333 36.6667C30.0707 36.6667 29.8106 36.6149 29.568 36.5144C29.3253 36.4139 29.1048 36.2666 28.9191 36.0809C28.7334 35.8952 28.5861 35.6747 28.4856 35.432C28.3851 35.1894 28.3333 34.9293 28.3333 34.6667C28.3333 34.1362 28.5441 33.6275 28.9191 33.2525C29.2942 32.8774 29.8029 32.6667 30.3333 32.6667C30.8638 32.6667 31.3725 32.8774 31.7476 33.2525C32.1226 33.6275 32.3333 34.1362 32.3333 34.6667Z" fill="black"/>
<path d="M28.5 30.125C28.3229 30.125 28.1746 30.065 28.055 29.945C27.9354 29.825 27.8754 29.6767 27.875 29.5V25.125H23.5C23.3229 25.125 23.1746 25.065 23.055 24.945C22.9354 24.825 22.8754 24.6767 22.875 24.5C22.8746 24.3233 22.9346 24.175 23.055 24.055C23.1754 23.935 23.3238 23.875 23.5 23.875H27.875V19.5C27.875 19.3229 27.935 19.1746 28.055 19.055C28.175 18.9354 28.3233 18.8754 28.5 18.875C28.6767 18.8746 28.8252 18.9346 28.9456 19.055C29.066 19.1754 29.1258 19.3238 29.125 19.5V23.875H33.5C33.6771 23.875 33.8256 23.935 33.9456 24.055C34.0656 24.175 34.1254 24.3233 34.125 24.5C34.1246 24.6767 34.0646 24.8252 33.945 24.9456C33.8254 25.066 33.6771 25.1258 33.5 25.125H29.125V29.5C29.125 29.6771 29.065 29.8256 28.945 29.9456C28.825 30.0656 28.6767 30.1254 28.5 30.125Z" fill="black"/>
</g>
<defs>
<clipPath id="clip0_2_12">
<rect width="52" height="52" fill="white"/>
</clipPath>
</defs>
</svg>
